<svg width="1536" height="276" viewBox="0 0 1536 276" fill="none" xmlns="http://www.w3.org/2000/svg">
<path d="M840.533 23.082C857.91 23.7879 880.455 23.2905 897.968 23.13C891.008 41.3542 884.453 62.8267 878.43 81.48C875.558 88.5032 871.838 101.062 869.43 108.497L854.04 155.571C843.893 186.509 829.358 226.882 821.22 257.415C805.365 256.682 784.582 257.316 768.337 257.327C753.255 207.121 735.479 156.712 719.866 106.535C715.634 121.48 709.829 138.126 705.094 153.076L671.859 257.271C647.601 257.183 623.343 257.231 599.086 257.415C579.905 197.868 557.615 138.179 538.319 78.5828C532.463 60.5011 524.87 40.9836 519.614 23.1382C538.481 23.2995 557.348 23.3055 576.215 23.1585C596.787 77.9136 616.246 136.118 635.847 191.488C641.987 175.679 648.452 154.549 653.963 138.144L692.738 23.1052C711.389 23.4698 730.713 23.2425 749.378 23.0985L794.888 162.543C809.295 116.276 825.315 69.162 840.533 23.082Z" fill="#DADDEF"/>
<path d="M358.184 19.0437C424.826 9.82624 486.347 56.3136 495.698 122.952C505.048 189.59 458.697 251.222 392.094 260.709C325.299 270.225 263.467 223.7 254.09 156.87C244.712 90.0396 291.352 28.2875 358.184 19.0437ZM384.563 216.805C453.061 205.227 466.806 111.773 414.377 75.0562C400.413 65.3721 383.388 61.1343 366.515 63.144C272.802 74.0126 287.426 228.29 384.563 216.805Z" fill="#DADDEF"/>
<path d="M938.408 23.0505C967.665 24.2125 998.093 22.6896 1027.43 23.2065C1057.91 23.7429 1080.74 20.8562 1107.95 37.9896C1143.41 60.3143 1151.66 110.406 1129.34 144.694C1117.14 163.444 1099.64 171.4 1078.64 175.587C1098.71 202.659 1118.56 229.889 1138.2 257.272C1118.84 257.304 1096.17 257.913 1077.08 257.067C1061.88 238.139 1047.68 218.152 1032.79 198.961C1027.55 192.227 1018.55 182.512 1018.53 174.059V141.03C1036.85 140.939 1064.46 144.118 1078.26 130.691C1092.71 116.631 1091.85 90.9158 1077.45 76.8858C1072.95 72.5228 1067.45 69.342 1061.42 67.6301C1048.45 63.9167 1011.28 65.3 996.038 65.3766C995.348 128.829 996.038 193.628 995.97 257.181C976.95 257.463 957.54 257.292 938.49 257.317C939.765 199.828 937.65 141.313 938.528 83.7245C938.828 64.2475 939.24 42.421 938.408 23.0505Z" fill="#DADDEF"/>
<path d="M1207.27 23.082C1224.65 23.6214 1243.97 23.2245 1261.51 23.238C1260.01 44.6505 1262.08 70.8851 1261.33 92.6172C1261.02 101.813 1261.9 110.397 1260.78 119.844C1288.47 90.0748 1317.12 54.2911 1344.09 23.2028C1365.16 22.9492 1386.71 23.2342 1407.86 23.1322C1387.86 47.2604 1364.05 72.5798 1343.23 96.8587L1261.42 190.248C1260.19 206.216 1261.21 240.635 1261.42 257.393C1244.32 256.878 1224.35 257.248 1207.26 257.408L1207.27 23.082Z" fill="#DADDEF"/>
<path d="M168.023 23.1735C187.176 23.2223 206.889 23.5014 225.995 23.0723C201.025 48.5177 172.325 82.8911 147.987 110.158C128.651 132.495 108.216 154.325 89.0872 176.825C88.3627 183.943 88.7167 202.844 88.8112 210.638C88.9867 225.091 88.1534 243.228 89.0632 257.331C72.3458 257.139 55.2949 257.322 38.5509 257.331C39.6599 237.751 38.4344 208.899 38.6148 188.367C39.0973 133.462 37.8604 78.1155 38.6934 23.205L88.6829 23.178C88.7729 53.0878 89.2627 84.1664 88.6049 113.967C114.008 84.5295 141.805 51.6738 168.023 23.1735Z" fill="#DADDEF"/>
<path d="M1296.39 201.971C1303.46 201.772 1356.08 200.125 1359.23 204.329C1364.15 210.875 1400.57 253.39 1400.65 257.341C1380.27 256.967 1359.7 257.543 1339.23 257.139C1325.17 239.134 1310.34 221.725 1296.44 203.593C1296.43 203.052 1296.41 202.512 1296.39 201.971Z" fill="#DADDEF"/>
<path d="M122.836 202.023C140.011 201.497 163.888 201.419 181.007 202.056C194.085 217.624 210.66 240.676 223.486 257.315C204.632 256.889 184.927 257.444 165.873 257.205C161.163 251.838 154.618 242.793 150.042 236.859C141.036 225.198 131.967 213.586 122.836 202.023Z" fill="#DADDEF"/>
</svg>
